<svg width="25" height="25" viewBox="0 0 25 25" fill="none" xmlns="http://www.w3.org/2000/svg">
<circle cx="12.5" cy="12.5" r="12.5" fill="white"/>
<path d="M2.4 15.14C2.62667 14.8 2.81333 14.4833 2.96 14.19C3.11333 13.8967 3.26 13.5567 3.4 13.17C3.87333 13.4433 4.42333 13.6567 5.05 13.81C5.67667 13.9633 6.26 14.04 6.8 14.04C7.35333 14.04 7.74333 13.9933 7.97 13.9C8.19667 13.8 8.31 13.6933 8.31 13.58C8.31 13.1733 7.69 12.97 6.45 12.97C5.09 12.97 4.10333 12.83 3.49 12.55C2.87667 12.2633 2.57 11.8033 2.57 11.17C2.57 10.27 2.94333 9.60667 3.69 9.18C4.43667 8.75333 5.40667 8.54 6.6 8.54C7.29333 8.54 8.00333 8.63 8.73 8.81C9.46333 8.98333 10.1233 9.22333 10.71 9.53C10.5167 9.97 10.3133 10.5067 10.1 11.14C10.06 11.2733 10.0267 11.3733 10 11.44C9.66 11.1667 9.14667 10.94 8.46 10.76C7.77333 10.5733 7.16667 10.48 6.64 10.48C6.00667 10.48 5.58 10.5233 5.36 10.61C5.14 10.69 5.03 10.81 5.03 10.97C5.03 11.13 5.18 11.26 5.48 11.36C5.78667 11.4533 6.22667 11.5 6.8 11.5C8.21333 11.5 9.24 11.6633 9.88 11.99C10.52 12.31 10.84 12.8033 10.84 13.47C10.84 14.4033 10.5 15.0767 9.82 15.49C9.14 15.8967 8.11 16.1 6.73 16.1C5.99 16.1 5.23667 16.02 4.47 15.86C3.70333 15.6933 3.01333 15.4533 2.4 15.14ZM20.9883 8.74L21.7683 16H19.1783L19.0183 10.82L18.0183 16H15.3983L14.3783 10.86L14.2283 16H11.6383L12.4183 8.74H15.8183L16.6883 13.47L17.4483 8.74H20.9883Z" fill="#111111"/>
</svg>
