<svg width="203" height="40" viewBox="0 0 203 40" fill="none" xmlns="http://www.w3.org/2000/svg">
<g clip-path="url(#clip0_44_42)">
<path d="M19.9803 40C31.0151 40 39.9606 31.0457 39.9606 20C39.9606 8.95431 31.0151 0 19.9803 0C8.94549 0 0 8.95431 0 20C0 31.0457 8.94549 40 19.9803 40Z" fill="#111111"/>
<path d="M3.83621 24.224C4.19853 23.68 4.49689 23.1733 4.73133 22.704C4.97642 22.2347 5.21086 21.6907 5.43464 21.072C6.19122 21.5093 7.07035 21.8507 8.07204 22.096C9.07372 22.3413 10.0061 22.464 10.8693 22.464C11.7537 22.464 12.3771 22.3893 12.7394 22.24C13.1018 22.08 13.2829 21.9093 13.2829 21.728C13.2829 21.0773 12.2919 20.752 10.3098 20.752C8.13598 20.752 6.55886 20.528 5.5785 20.08C4.59813 19.6213 4.10794 18.8853 4.10794 17.872C4.10794 16.432 4.70468 15.3707 5.89818 14.688C7.09168 14.0053 8.64215 13.664 10.5496 13.664C11.6578 13.664 12.7927 13.808 13.9542 14.096C15.1264 14.3733 16.1813 14.7573 17.1191 15.248C16.8102 15.952 16.485 16.8107 16.1441 17.824C16.0802 18.0373 16.0269 18.1973 15.9842 18.304C15.4408 17.8667 14.6203 17.504 13.5227 17.216C12.4251 16.9173 11.4554 16.768 10.6135 16.768C9.6012 16.768 8.9192 16.8373 8.56755 16.976C8.2159 17.104 8.04007 17.296 8.04007 17.552C8.04007 17.808 8.27983 18.016 8.75936 18.176C9.24955 18.3253 9.95286 18.4 10.8693 18.4C13.1284 18.4 14.7694 18.6613 15.7924 19.184C16.8154 19.696 17.3269 20.4853 17.3269 21.552C17.3269 23.0453 16.7835 24.1227 15.6965 24.784C14.6096 25.4347 12.9632 25.76 10.7574 25.76C9.57456 25.76 8.37042 25.632 7.14495 25.376C5.91949 25.1093 4.81657 24.7253 3.83621 24.224ZM33.5482 13.984L34.795 25.6H30.6551L30.3993 17.312L28.8009 25.6H24.613L22.9826 17.376L22.7429 25.6H18.6029L19.8497 13.984H25.2844L26.675 21.552L27.8898 13.984H33.5482Z" fill="white"/>
<path d="M48.8479 26.8736C49.3551 26.112 49.7729 25.4027 50.101 24.7456C50.4442 24.0885 50.7724 23.3269 51.0857 22.4608C52.1449 23.0731 53.3757 23.5509 54.778 23.8944C56.1803 24.2379 57.4858 24.4096 58.6942 24.4096C59.9325 24.4096 60.8052 24.3051 61.3124 24.096C61.8196 23.872 62.0732 23.6331 62.0732 23.3792C62.0732 22.4683 60.6858 22.0128 57.9109 22.0128C54.8675 22.0128 52.6596 21.6992 51.2871 21.072C49.9145 20.4299 49.2283 19.3995 49.2283 17.9808C49.2283 15.9648 50.0638 14.4789 51.7346 13.5232C53.4055 12.5675 55.5761 12.0896 58.2466 12.0896C59.7982 12.0896 61.387 12.2912 63.0131 12.6944C64.6542 13.0827 66.1312 13.6203 67.4439 14.3072C67.0113 15.2928 66.5563 16.4949 66.0789 17.9136C65.9894 18.2123 65.9147 18.4363 65.8551 18.5856C65.0943 17.9733 63.9455 17.4656 62.4089 17.0624C60.8723 16.6443 59.5146 16.4352 58.3361 16.4352C56.9188 16.4352 55.9641 16.5323 55.4717 16.7264C54.9794 16.9056 54.7333 17.1744 54.7333 17.5328C54.7333 17.8912 55.0689 18.1824 55.7403 18.4064C56.4265 18.6155 57.4111 18.72 58.6942 18.72C61.857 18.72 64.1544 19.0859 65.5866 19.8176C67.0188 20.5344 67.7349 21.6395 67.7349 23.1328C67.7349 25.2235 66.974 26.7317 65.4523 27.6576C63.9306 28.5685 61.6257 29.024 58.5375 29.024C56.8816 29.024 55.1957 28.8448 53.4801 28.4864C51.7645 28.1131 50.2204 27.5755 48.8479 26.8736ZM83.8655 25.0816C83.8655 25.5893 83.9252 25.9477 84.0446 26.1568C84.164 26.3659 84.4026 26.5152 84.7606 26.6048L84.6711 28.7104C84.1937 28.7851 83.776 28.8373 83.418 28.8672C83.0748 28.8971 82.6124 28.912 82.0305 28.912C80.7475 28.912 79.8971 28.6283 79.4794 28.0608C79.0618 27.4784 78.8529 26.7392 78.8529 25.8432V25.2832C78.4202 26.5077 77.7862 27.4187 76.9507 28.016C76.1303 28.6133 75.0785 28.912 73.7954 28.912C72.3036 28.912 71.1772 28.6133 70.4164 28.016C69.6704 27.4187 69.2975 26.5301 69.2975 25.3504C69.2975 24.3797 69.6183 23.6181 70.2597 23.0656C70.9012 22.5131 71.8933 22.1323 73.236 21.9232C72.1022 21.1168 70.9683 20.4149 69.8346 19.8176C70.7297 18.6827 71.7515 17.824 72.9003 17.2416C74.0491 16.6443 75.4439 16.3456 77.085 16.3456C79.3824 16.3456 81.0831 16.8459 82.1872 17.8464C83.3061 18.832 83.8655 20.3552 83.8655 22.416V25.0816ZM77.5549 20.288C76.7941 20.288 76.1228 20.4149 75.5409 20.6688C74.9591 20.9227 74.4369 21.3035 73.9745 21.8112C74.8696 21.7067 75.9885 21.6544 77.3312 21.6544C77.8831 21.6544 78.271 21.5872 78.4948 21.4528C78.7186 21.3184 78.8305 21.1467 78.8305 20.9376C78.8305 20.7584 78.7186 20.6091 78.4948 20.4896C78.271 20.3552 77.9578 20.288 77.5549 20.288ZM75.2053 25.2608C76.0408 25.2608 76.7941 25.104 77.4654 24.7904C78.1368 24.4619 78.5992 24.0363 78.8529 23.5136V22.9312C78.4948 23.1104 78.0995 23.2523 77.6668 23.3568C77.2341 23.4464 76.7121 23.536 76.1004 23.6256L75.2948 23.76C74.4593 23.9243 74.0416 24.208 74.0416 24.6112C74.0416 25.0443 74.4295 25.2608 75.2053 25.2608ZM100.833 16.5696C99.2214 20.9152 97.7893 24.992 96.5361 28.8H89.5318C88.1891 24.7232 86.7496 20.6464 85.2128 16.5696H90.4717L93.0675 25.7984L95.641 16.5696H100.833ZM112.457 23.2H105.162C105.281 23.8571 105.572 24.3947 106.034 24.8128C106.512 25.216 107.183 25.4176 108.048 25.4176C108.675 25.4176 109.264 25.2981 109.816 25.0592C110.368 24.8053 110.808 24.4544 111.136 24.0064C112.136 24.4992 113.464 25.0293 115.12 25.5968C114.657 26.6421 113.814 27.4784 112.591 28.1056C111.383 28.7179 109.801 29.024 107.847 29.024C105.311 29.024 103.431 28.4416 102.208 27.2768C100.999 26.0971 100.395 24.5515 100.395 22.64C100.395 20.7733 100.999 19.2576 102.208 18.0928C103.416 16.928 105.296 16.3456 107.847 16.3456C109.369 16.3456 110.689 16.5995 111.808 17.1072C112.927 17.6149 113.784 18.3243 114.381 19.2352C114.978 20.1312 115.276 21.1616 115.276 22.3264C115.276 22.7147 115.261 23.0059 115.232 23.2H112.457ZM108.16 19.728C107.414 19.728 106.802 19.8699 106.325 20.1536C105.848 20.4373 105.512 20.8256 105.318 21.3184H110.599C110.42 20.8405 110.129 20.4597 109.727 20.176C109.324 19.8773 108.802 19.728 108.16 19.728ZM137.757 12.5376L139.503 28.8H133.707L133.349 17.1968L131.111 28.8H125.248L122.966 17.2864L122.63 28.8H116.834L118.579 12.5376H126.188L128.135 23.1328L129.836 12.5376H137.757ZM148.494 29.024C145.943 29.024 144.063 28.4416 142.854 27.2768C141.661 26.0971 141.064 24.5515 141.064 22.64C141.064 20.7733 141.661 19.2576 142.854 18.0928C144.063 16.928 145.943 16.3456 148.494 16.3456C150.209 16.3456 151.642 16.6293 152.79 17.1968C153.954 17.7493 154.812 18.5035 155.364 19.4592C155.916 20.4 156.192 21.4603 156.192 22.64C156.192 24.5664 155.55 26.112 154.267 27.2768C152.999 28.4416 151.075 29.024 148.494 29.024ZM148.583 25.216C149.553 25.216 150.277 24.9845 150.754 24.5216C151.231 24.0587 151.47 23.4389 151.47 22.6624C151.47 21.9307 151.231 21.3333 150.754 20.8704C150.277 20.3925 149.553 20.1536 148.583 20.1536C147.614 20.1536 146.905 20.3851 146.457 20.848C146.01 21.3109 145.786 21.9157 145.786 22.6624C145.786 23.4389 146.01 24.0587 146.457 24.5216C146.905 24.9845 147.614 25.216 148.583 25.216ZM166.494 28.8C166.583 26.6048 166.628 24.5813 166.628 22.7296C166.628 22.0725 166.463 21.5499 166.136 21.1616C165.822 20.7733 165.419 20.5792 164.927 20.5792C164.435 20.5792 164.016 20.8032 163.674 21.2512C163.33 21.6843 163.129 22.2816 163.07 23.0432C163.039 24.1781 163.025 24.9845 163.025 25.4624C163.025 26.4779 163.054 27.5904 163.114 28.8H157.766C157.885 26.6496 157.945 24.6187 157.945 22.7072C157.945 20.7957 157.885 18.7499 157.766 16.5696C158.75 16.6144 159.504 16.6368 160.026 16.6368C160.578 16.6368 161.331 16.6144 162.287 16.5696L162.935 19.8624C163.278 18.6677 163.815 17.7867 164.547 17.2192C165.277 16.6368 166.128 16.3456 167.098 16.3456C167.993 16.3456 168.768 16.5472 169.425 16.9504C170.08 17.3387 170.573 17.8688 170.902 18.5408C171.244 19.2128 171.417 19.9669 171.417 20.8032V24.0288C171.417 26.0149 171.453 27.6053 171.529 28.8H166.494ZM185.163 23.2H177.868C177.988 23.8571 178.279 24.3947 178.741 24.8128C179.219 25.216 179.89 25.4176 180.755 25.4176C181.381 25.4176 181.971 25.2981 182.523 25.0592C183.074 24.8053 183.515 24.4544 183.843 24.0064C184.842 24.4992 186.17 25.0293 187.826 25.5968C187.364 26.6421 186.52 27.4784 185.297 28.1056C184.089 28.7179 182.508 29.024 180.553 29.024C178.017 29.024 176.137 28.4416 174.914 27.2768C173.706 26.0971 173.101 24.5515 173.101 22.64C173.101 20.7733 173.706 19.2576 174.914 18.0928C176.122 16.928 178.002 16.3456 180.553 16.3456C182.075 16.3456 183.395 16.5995 184.514 17.1072C185.633 17.6149 186.491 18.3243 187.088 19.2352C187.684 20.1312 187.983 21.1616 187.983 22.3264C187.983 22.7147 187.968 23.0059 187.938 23.2H185.163ZM180.867 19.728C180.12 19.728 179.51 19.8699 179.032 20.1536C178.554 20.4373 178.218 20.8256 178.025 21.3184H183.306C183.127 20.8405 182.836 20.4597 182.433 20.176C182.03 19.8773 181.508 19.728 180.867 19.728ZM202.933 16.5696L202.418 17.8688C201 21.6469 199.515 25.2907 197.965 28.8C197.159 30.592 195.996 32.0256 194.474 33.1008C192.952 34.1909 191.042 34.7136 188.745 34.6688C188.461 33.4293 188.223 32.4587 188.029 31.7568C187.85 31.0699 187.61 30.3755 187.313 29.6736C188.133 29.8677 188.902 29.9648 189.618 29.9648C190.782 29.9648 191.706 29.7184 192.393 29.2256C191.856 27.6277 191.221 25.9104 190.491 24.0736C189.759 22.2368 188.7 19.7355 187.313 16.5696H192.617C192.796 17.3163 193.042 18.1824 193.355 19.168C193.668 20.1536 193.982 21.1019 194.295 22.0128C194.384 22.2965 194.525 22.7296 194.72 23.312C194.928 23.8795 195.093 24.3573 195.212 24.7456L195.794 22.976C196.913 19.7355 197.577 17.6 197.786 16.5696H202.933Z" fill="#111111"/>
</g>
<defs>
<clipPath id="clip0_44_42">
<rect width="203" height="40" fill="white"/>
</clipPath>
</defs>
</svg>
